<?xml version="1.0" encoding="UTF-8" standalone="no"?>
<!-- Created with Inkscape (http://www.inkscape.org/) -->

<svg
   width="1200"
   height="1200"
   viewBox="0 0 317.49999 317.5"
   version="1.1"
   id="svg1"
   xml:space="preserve"
   inkscape:version="1.4.2 (ebf0e940d0, 2025-05-08)"
   sodipodi:docname="orphycleaner.svg"
   inkscape:export-filename="orphycleaner.png"
   inkscape:export-xdpi="96"
   inkscape:export-ydpi="96"
   xmlns:inkscape="http://www.inkscape.org/namespaces/inkscape"
   xmlns:sodipodi="http://sodipodi.sourceforge.net/DTD/sodipodi-0.dtd"
   xmlns="http://www.w3.org/2000/svg"
   xmlns:svg="http://www.w3.org/2000/svg"
   xmlns:rdf="http://www.w3.org/1999/02/22-rdf-syntax-ns#"
   xmlns:cc="http://creativecommons.org/ns#"
   xmlns:dc="http://purl.org/dc/elements/1.1/"><title
     id="title1">OrphyCleaner</title><sodipodi:namedview
     id="namedview1"
     pagecolor="#ffffff"
     bordercolor="#666666"
     borderopacity="1.0"
     inkscape:showpageshadow="2"
     inkscape:pageopacity="0.0"
     inkscape:pagecheckerboard="true"
     inkscape:deskcolor="#d1d1d1"
     inkscape:document-units="mm"
     inkscape:zoom="0.51717104"
     inkscape:cx="698.99506"
     inkscape:cy="668.05752"
     inkscape:window-width="1920"
     inkscape:window-height="1043"
     inkscape:window-x="0"
     inkscape:window-y="0"
     inkscape:window-maximized="1"
     inkscape:current-layer="layer2"
     inkscape:export-bgcolor="#ffffff00"
     showgrid="false" /><defs
     id="defs1"><inkscape:path-effect
       effect="spiro"
       id="path-effect11"
       is_visible="true"
       lpeversion="1" /><inkscape:path-effect
       effect="spiro"
       id="path-effect10"
       is_visible="true"
       lpeversion="1" /><inkscape:path-effect
       effect="spiro"
       id="path-effect9"
       is_visible="true"
       lpeversion="1" /></defs><g
     inkscape:label="Layer 1"
     id="layer1"
     transform="translate(-17.69551,-18.41916)"><ellipse
       style="fill:#283551;fill-opacity:1;stroke:#559cd1;stroke-width:13.9401;stroke-linecap:round;stroke-dasharray:none;stroke-dashoffset:49.022;stroke-opacity:1"
       id="path12"
       cx="176.44528"
       cy="177.16934"
       rx="150.48224"
       ry="150.48225"
       inkscape:label="pozadie"
       sodipodi:insensitive="true" /><path
       id="path1"
       style="display:inline;fill:#559cd1;fill-opacity:1;stroke-width:1.14511"
       inkscape:label="koleso"
       d="M 164.81415,29.847985 A 147.77972,147.77975 0 0 0 91.550684,56.207518 c 11.410786,-1.858922 22.899336,1.063723 32.234436,8.433038 11.21302,8.851795 17.21171,23.320819 15.46007,37.290354 -2.39507,19.10111 -17.25378,33.96921 -36.33348,36.35656 -1.41205,0.17667 -3.797981,0.30405 -5.302091,0.28287 -20.830741,-0.29264 -38.14226,-15.85079 -40.740257,-36.61399 -0.51101,-4.083974 -0.363553,-8.16774 0.365111,-12.123192 A 147.77972,147.77975 0 0 0 29.407398,162.38297 c 0.466472,0.47456 0.977652,0.99116 1.539143,1.55571 4.299398,4.32285 6.216712,6.03373 7.574409,6.75839 3.351077,1.78861 7.221178,2.2764 10.99591,1.38647 3.333064,-0.78581 5.229628,-2.04319 9.441974,-6.25954 2.942674,-2.94548 4.077783,-3.58305 6.377297,-3.58305 2.697987,0 8.139484,2.3996 10.05621,4.43458 1.479158,1.57042 1.758092,2.73225 1.758092,7.32292 0,6.03976 0.815089,8.92493 3.470616,12.28473 1.943717,2.45921 5.599937,4.60975 9.102901,5.35417 0.666544,0.14163 4.824901,0.2226 9.240779,0.17988 l 8.028871,-0.0775 2.20664,-0.93497 c 4.87166,-2.06416 7.95369,-5.53705 9.18457,-10.34972 0.43037,-1.68278 0.57635,-3.31759 0.57635,-6.45658 0,-4.59067 0.27894,-5.7525 1.7581,-7.32292 1.91672,-2.03498 7.35822,-4.43458 10.0562,-4.43458 2.20919,0 3.18652,0.52357 5.91042,3.16527 1.33255,1.29234 3.1049,2.92874 3.93809,3.63632 3.00582,2.55263 6.78601,3.72662 10.97698,3.40966 4.35693,-0.32951 8.42313,-3.04764 15.40208,-10.29647 4.52542,-4.70042 5.66026,-6.57889 6.24475,-10.33847 0.2838,-1.82355 0.28461,-2.90362 0.006,-4.81981 -0.59582,-4.08789 -1.83426,-6.11314 -6.86727,-11.22847 -1.28728,-1.30833 -2.53159,-2.83624 -2.76525,-3.39546 -0.71879,-1.72033 -0.52749,-3.82283 0.61719,-6.78679 1.17069,-3.03131 1.68652,-3.95361 3.02681,-5.40979 1.69172,-1.83799 2.22927,-1.98225 8.20167,-2.2013 5.6104,-0.20579 6.49504,-0.37274 9.08929,-1.71668 3.36082,-1.74106 5.85185,-4.5718 7.31699,-8.31587 l 0.86337,-2.20723 v -8.483334 c 0,-8.049166 -0.035,-8.586055 -0.69176,-10.485822 -0.87346,-2.526783 -2.1132,-4.487687 -3.99669,-6.322264 -3.26728,-3.182425 -6.57557,-4.24877 -13.18065,-4.24877 -4.49713,0 -5.67315,-0.285575 -7.23652,-1.758091 -2.03498,-1.916727 -4.43458,-7.358212 -4.43458,-10.056211 0,-2.28363 0.58106,-3.312303 3.60672,-6.384397 4.29318,-4.359092 5.4535,-6.113843 6.23646,-9.434872 0.8726,-3.701182 0.35947,-7.764682 -1.38824,-10.995911 -0.71193,-1.316234 -3.72592,-4.624126 -6.8365,-7.718204 z"
       sodipodi:insensitive="true" /><path
       id="path2"
       style="fill:#559cd1;fill-opacity:1;stroke-width:0.685178"
       inkscape:label="metla"
       d="m 267.83439,64.551793 c -2.88692,-0.05666 -5.22492,0.863603 -6.39564,2.716137 -0.29813,0.471752 -9.90042,18.397113 -21.33794,39.83429 -11.43752,21.43717 -21.11246,39.55741 -21.50007,40.26686 l -0.70478,1.28942 16.72287,7.53062 c 9.19761,4.14176 16.76877,7.53862 16.82465,7.54778 0.0559,0.009 7.1824,-19.51485 15.83703,-43.38775 15.06659,-41.55962 15.73503,-43.455356 15.71808,-44.588415 -0.006,-0.369059 -0.0456,-0.740911 -0.11835,-1.112492 -2.99808,-3.112578 -6.13126,-6.092144 -9.39049,-8.930108 -1.99329,-0.746602 -3.92321,-1.132346 -5.65536,-1.166342 z m -73.77948,93.145097 c -3.92673,-0.0135 -6.11484,0.2751 -9.51712,1.25451 -9.19906,2.64813 -17.05713,9.07132 -21.37048,17.46849 l -0.90715,1.76638 52.24566,23.13626 c 28.73509,12.72509 52.31527,23.11887 52.4007,23.0978 0.44588,-0.11062 2.03066,-5.13377 2.5818,-8.18331 0.41014,-2.26929 0.47085,-8.52251 0.10295,-10.60536 -1.39159,-7.879 -4.43878,-13.84383 -9.81655,-19.21769 -2.56502,-2.56318 -4.54561,-4.08516 -7.43357,-5.71158 -2.27656,-1.2821 -45.89841,-20.5769 -48.38154,-21.40007 -1.06015,-0.35144 -2.94738,-0.85354 -4.19373,-1.11604 -1.97149,-0.41526 -2.7143,-0.47908 -5.71099,-0.48939 z m -40.67042,36.93885 c -0.0918,-0.001 -0.14054,0.0273 -0.17457,0.0728 -0.13042,0.17464 -0.74618,1.21518 -1.36813,2.31198 -11.05789,19.49993 -33.69601,34.92292 -63.990139,43.59545 -14.661911,4.1974 -28.290668,6.4619 -41.381715,6.87496 25.819863,47.72272 75.715904,77.4578 129.975664,77.45779 1.26414,5e-5 2.52822,-0.0162 3.79194,-0.0486 -4.11164,-0.72324 -8.37647,-1.61188 -12.65045,-2.64039 -2.29327,-0.55186 -4.34674,-1.04459 -4.56358,-1.09475 -0.35221,-0.0813 4.33567,-1.91534 1.61016,-2.4741 -33.60702,-6.88988 -8.90786,-0.37803 -28.94726,-7.39925 l -1.58885,0.13965 -3.64992,-1.57584 c -4.8287,-2.08451 -5.7962,-2.53696 -10.81069,-5.05354 -3.88728,-1.95085 -7.90201,-4.09215 -10.82786,-5.7749 l -1.12965,-0.64973 c -26.01709,-14.96407 -4.44371,4.98091 -13.842231,-8.99344 -0.470504,-0.69958 -11.290584,-7.91708 -17.790984,-13.4919 -3.156618,-2.70714 -9.209484,-8.27505 -9.107043,-8.37743 0.03516,-0.0352 1.810952,-0.35043 3.946386,-0.70063 14.79069,-2.42555 27.512867,-5.86234 40.230762,-10.86749 28.59406,-11.25323 49.35059,-28.21487 61.016,-49.86151 l 0.7817,-1.45038 -9.73371,-5.12161 c -7.5438,-3.96949 -9.30022,-4.86847 -9.79583,-4.8772 z m 86.34056,41.32729 c -0.1144,-0.0418 -0.93214,2.09672 -1.96817,5.14763 -11.03982,32.51043 -35.55612,65.85102 -64.54767,76.47933 -10.03265,3.67796 19.34233,18.05941 26.47426,10.10222 11.08766,-12.37065 29.95062,-13.92983 51.68892,-61.71432 3.76531,-8.27676 9.17128,-23.00646 8.96866,-23.20737 -0.064,-0.0634 -4.68442,-1.60486 -10.26806,-3.42565 -5.58362,-1.82076 -10.24019,-3.34257 -10.34794,-3.38184 z"
       sodipodi:nodetypes="sssccccssccsssccccssssssssscscscscssccsscssssscccsssccsssssc"
       sodipodi:insensitive="true" /><ellipse
       style="display:inline;fill:none;fill-opacity:1;stroke:#559cd1;stroke-width:19.3454;stroke-linecap:round;stroke-dasharray:none;stroke-dashoffset:49.022;stroke-opacity:1"
       id="ellipse3"
       cx="176.44562"
       cy="177.16913"
       rx="147.77971"
       ry="147.77975"
       inkscape:label="kruh"
       sodipodi:insensitive="true" /><path
       style="fill:#000000;fill-opacity:0;stroke:#559cd1;stroke-width:18.8542;stroke-linecap:butt;stroke-linejoin:miter;stroke-dasharray:none;stroke-opacity:1"
       d="m 93.34931,300.57499 c 15.65799,0.87287 29.84819,-3.91095 44.32444,-9.94194 20.86884,-8.6942 38.75928,-24.78106 50.12391,-44.32444"
       id="path11"
       sodipodi:nodetypes="csc"
       inkscape:label="cast metly"
       sodipodi:insensitive="true" /></g><g
     inkscape:groupmode="layer"
     id="layer2"
     inkscape:label="Layer 1" /><metadata
     id="metadata1"><rdf:RDF><cc:Work
         rdf:about=""><dc:title>OrphyCleaner</dc:title><dc:creator><cc:Agent><dc:title>Jozef Gaal</dc:title></cc:Agent></dc:creator><dc:rights><cc:Agent><dc:title>Jozef Gaal</dc:title></cc:Agent></dc:rights><dc:subject><rdf:Bag><rdf:li>orphycleaner</rdf:li><rdf:li>icon</rdf:li></rdf:Bag></dc:subject><dc:description>https://github.com/dodog/orphycleaner</dc:description></cc:Work></rdf:RDF></metadata></svg>
